<svg xmlns="http://www.w3.org/2000/svg" xmlns:xlink="http://www.w3.org/1999/xlink" width="500" zoomAndPan="magnify" viewBox="0 0 375 374.999991" height="500" preserveAspectRatio="xMidYMid meet" version="1.0"><defs><clipPath id="25aacceb66"><path d="M 80 66 L 308 66 L 308 246 L 80 246 Z M 80 66 " clip-rule="nonzero"/></clipPath><clipPath id="301d98d202"><path d="M 93.011719 64.136719 L 309.753906 86.570312 L 292.039062 257.75 L 75.296875 235.316406 Z M 93.011719 64.136719 " clip-rule="nonzero"/></clipPath><clipPath id="d1e7a1ad7b"><path d="M 93.011719 64.136719 L 309.753906 86.570312 L 292.039062 257.75 L 75.296875 235.316406 Z M 93.011719 64.136719 " clip-rule="nonzero"/></clipPath></defs><g clip-path="url(#25aacceb66)"><g clip-path="url(#301d98d202)"><g clip-path="url(#d1e7a1ad7b)"><path fill="#f77e2e" d="M 307.246094 109.640625 C 308.566406 96.890625 299.300781 85.488281 286.550781 84.167969 L 116.621094 66.582031 C 103.871094 65.261719 92.46875 74.527344 91.148438 87.277344 C 88.535156 112.519531 83.363281 162.5 80.75 187.746094 C 79.429688 200.496094 88.695312 211.898438 101.445312 213.21875 L 152.96875 218.550781 C 152.96875 218.550781 179.542969 243.144531 179.542969 243.144531 C 182.074219 245.488281 185.84375 245.878906 188.804688 244.101562 L 219.851562 225.472656 L 271.375 230.804688 C 284.125 232.125 295.527344 222.863281 296.847656 210.113281 Z M 291.808594 108.042969 L 281.410156 208.515625 C 280.972656 212.734375 277.191406 215.808594 272.972656 215.371094 C 272.972656 215.371094 218.878906 209.773438 218.878906 209.773438 C 217.210938 209.597656 215.527344 209.972656 214.085938 210.835938 L 185.808594 227.800781 C 185.808594 227.800781 161.605469 205.40625 161.605469 205.40625 C 160.375 204.261719 158.800781 203.554688 157.136719 203.382812 L 103.042969 197.78125 C 98.820312 197.347656 95.75 193.566406 96.183594 189.34375 L 106.582031 88.875 C 107.019531 84.652344 110.800781 81.578125 115.023438 82.015625 C 115.023438 82.015625 284.953125 99.605469 284.953125 99.605469 C 289.175781 100.042969 292.246094 103.824219 291.808594 108.042969 Z M 141.851562 166.699219 L 164.171875 169.007812 L 167.390625 183.507812 C 168.324219 187.691406 172.472656 190.328125 176.648438 189.402344 C 180.832031 188.46875 183.46875 184.320312 182.542969 180.144531 L 166.578125 108.289062 C 165.855469 105.023438 163.121094 102.597656 159.800781 102.253906 C 156.484375 101.910156 153.308594 103.726562 151.929688 106.773438 L 121.589844 173.835938 C 119.828125 177.734375 121.558594 182.335938 125.464844 184.105469 C 129.359375 185.867188 133.964844 184.132812 135.734375 180.230469 Z M 228.0625 121.019531 L 212.628906 119.421875 C 208.367188 118.980469 204.550781 122.078125 204.113281 126.339844 C 203.671875 130.597656 206.769531 134.414062 211.03125 134.855469 L 226.25 136.429688 C 225.777344 139.925781 225.292969 144.242188 225.15625 148.960938 C 224.804688 150.710938 224.375 152.5 223.855469 154.296875 C 221.105469 163.816406 215.660156 173.769531 203.492188 177.625 C 199.410156 178.917969 197.148438 183.289062 198.441406 187.367188 C 199.734375 191.449219 204.105469 193.710938 208.183594 192.417969 C 218.03125 189.292969 225.070312 183.617188 230.089844 176.8125 C 233.605469 184.503906 239.332031 191.5 248.332031 196.574219 C 252.0625 198.675781 256.800781 197.355469 258.902344 193.625 C 261.003906 189.898438 259.6875 185.15625 255.957031 183.054688 C 244.835938 176.789062 241.542969 165.933594 240.804688 156.050781 C 240.660156 154.1875 240.609375 152.347656 240.621094 150.5625 C 241.453125 145.914062 241.863281 141.589844 242.117188 138.074219 L 257.335938 139.648438 C 261.597656 140.089844 265.414062 136.988281 265.851562 132.730469 C 266.292969 128.46875 263.195312 124.652344 258.933594 124.214844 L 243.5 122.617188 L 243.898438 118.757812 C 244.339844 114.496094 241.238281 110.679688 236.980469 110.238281 C 232.71875 109.800781 228.902344 112.898438 228.464844 117.160156 Z M 148.597656 151.796875 L 160.621094 153.039062 L 156.476562 134.375 Z M 148.597656 151.796875 " fill-opacity="1" fill-rule="evenodd"/></g></g></g></svg>